<svg width="29" height="29" viewBox="0 0 29 29" fill="none" xmlns="http://www.w3.org/2000/svg">
<path d="M11.8779 6.59067L12.6459 7.9668C13.339 9.20869 13.0607 10.8378 11.9691 11.9294C11.9691 11.9294 11.9691 11.9294 11.9691 11.9294C11.969 11.9296 10.6452 13.2536 13.0457 15.6542C15.4455 18.054 16.7695 16.7318 16.7705 16.7308C16.7705 16.7308 16.7705 16.7308 16.7705 16.7308C17.8621 15.6392 19.4913 15.361 20.7331 16.0541L22.1093 16.8221C23.9845 17.8686 24.206 20.4985 22.5577 22.1468C21.5672 23.1373 20.3539 23.9079 19.0126 23.9588C16.7546 24.0444 12.92 23.4729 9.07351 19.6264C5.227 15.7799 4.65555 11.9453 4.74115 9.68736C4.792 8.34606 5.56268 7.13271 6.55314 6.14226C8.20146 4.49394 10.8313 4.7154 11.8779 6.59067Z" fill="#0568FD"/>
<path d="M15.6904 2.5246C15.7688 2.04074 16.2262 1.71252 16.71 1.79085C16.74 1.79658 16.8363 1.8146 16.8868 1.82584C16.9878 1.84833 17.1286 1.88295 17.3043 1.9341C17.6554 2.03639 18.1461 2.2049 18.7349 2.47486C19.9138 3.01536 21.4827 3.96085 23.1107 5.58888C24.7388 7.21691 25.6843 8.78578 26.2248 9.96471C26.4947 10.5536 26.6632 11.0442 26.7655 11.3954C26.8167 11.571 26.8513 11.7118 26.8738 11.8128C26.885 11.8633 26.8932 11.9038 26.899 11.9338L26.9058 11.9707C26.9841 12.4545 26.6589 12.9309 26.175 13.0092C25.6926 13.0873 25.238 12.7607 25.1578 12.2791C25.1553 12.2662 25.1485 12.2314 25.1412 12.1986C25.1266 12.1331 25.1014 12.0292 25.0613 11.8917C24.9813 11.6168 24.8422 11.2082 24.6112 10.7044C24.1499 9.69825 23.3204 8.30879 21.8556 6.84399C20.3908 5.37919 19.0014 4.54968 17.9952 4.08838C17.4915 3.85744 17.0828 3.71836 16.8079 3.63828C16.6704 3.59825 16.4977 3.55859 16.4321 3.544C15.9505 3.46374 15.6123 3.00707 15.6904 2.5246Z" fill="#0568FD"/>
<path fill-rule="evenodd" clip-rule="evenodd" d="M15.9582 6.60646C16.0928 6.13517 16.584 5.86227 17.0553 5.99693L16.8115 6.85028C17.0553 5.99693 17.0553 5.99693 17.0553 5.99693L17.057 5.99742L17.0588 5.99794L17.0628 5.99909L17.072 6.00183L17.0954 6.00912C17.1132 6.01483 17.1355 6.02226 17.1621 6.03169C17.2152 6.05055 17.2854 6.07737 17.3716 6.11429C17.544 6.18817 17.7796 6.30227 18.0689 6.47351C18.6481 6.8163 19.4388 7.3857 20.3677 8.31458C21.2965 9.24346 21.8659 10.0342 22.2087 10.6133C22.38 10.9027 22.4941 11.1382 22.568 11.3106C22.6049 11.3968 22.6317 11.467 22.6506 11.5202C22.66 11.5467 22.6674 11.569 22.6731 11.5869L22.6804 11.6103L22.6832 11.6195L22.6843 11.6234L22.6848 11.6252C22.6848 11.6252 22.6853 11.6269 21.832 11.8707L22.6853 11.6269C22.82 12.0982 22.5471 12.5894 22.0758 12.7241C21.6085 12.8576 21.1216 12.5905 20.9821 12.1265L20.9777 12.1138C20.9714 12.096 20.9584 12.061 20.9365 12.0098C20.8927 11.9077 20.8133 11.7406 20.6812 11.5174C20.4174 11.0716 19.9408 10.398 19.1125 9.56969C18.2843 8.74142 17.6107 8.26488 17.1648 8.00103C16.9417 7.86896 16.7746 7.78956 16.6724 7.74577C16.6213 7.72386 16.5863 7.71081 16.5685 7.7045L16.5557 7.70012C16.0918 7.56063 15.8246 7.07376 15.9582 6.60646Z" fill="#0568FD"/>
</svg>
