<svg width="21" height="21" viewBox="0 0 21 21" fill="none" xmlns="http://www.w3.org/2000/svg">
<path fill-rule="evenodd" clip-rule="evenodd" d="M10.9167 3.28125C8.51034 3.28125 6.57292 5.20698 6.57292 7.56618C6.57292 7.97057 6.62952 8.36107 6.73513 8.73086C7.17017 8.85642 7.57742 9.04653 7.9454 9.28995C8.24768 9.48991 8.33063 9.89706 8.13067 10.1993C7.9307 10.5016 7.52355 10.5846 7.22127 10.3846C6.88806 10.1642 6.50927 10.0061 6.10163 9.92699C5.90754 9.88933 5.70644 9.86948 5.5 9.86948C3.78403 9.86948 2.40625 11.2422 2.40625 12.9191C2.40625 14.5961 3.78403 15.9688 5.5 15.9688C5.86244 15.9688 6.15625 16.2626 6.15625 16.625C6.15625 16.9874 5.86244 17.2812 5.5 17.2812C3.07384 17.2812 1.09375 15.3356 1.09375 12.9191C1.09375 10.5529 2.99239 8.63806 5.34932 8.55949C5.29089 8.23686 5.26042 7.90486 5.26042 7.56618C5.26042 4.4675 7.80015 1.96875 10.9167 1.96875C13.68 1.96875 15.9883 3.93198 16.4775 6.53736C18.4899 7.39157 19.9062 9.37063 19.9062 11.6838C19.9062 14.3736 17.992 16.6113 15.4497 17.1549C15.0953 17.2307 14.7466 17.0049 14.6708 16.6504C14.595 16.296 14.8208 15.9473 15.1753 15.8715C17.135 15.4524 18.5938 13.7314 18.5938 11.6838C18.5938 9.81419 17.3781 8.21701 15.6734 7.63405C15.2284 7.48188 14.7497 7.3989 14.25 7.3989C13.7402 7.3989 13.2523 7.48526 12.7997 7.64335C12.4576 7.76287 12.0833 7.58238 11.9638 7.24021C11.8443 6.89805 12.0248 6.52378 12.3669 6.40427C12.9569 6.19819 13.591 6.0864 14.25 6.0864C14.5085 6.0864 14.7632 6.1036 15.013 6.13696C14.4174 4.47677 12.8119 3.28125 10.9167 3.28125ZM12.7026 15.2748C12.965 15.5247 12.9752 15.9401 12.7252 16.2026L10.2252 18.8276C10.1014 18.9576 9.9296 19.0312 9.75 19.0312C9.5704 19.0312 9.39865 18.9576 9.27479 18.8276L8.27478 17.7776C8.02483 17.5151 8.03496 17.0997 8.29741 16.8498C8.55987 16.5998 8.97526 16.61 9.22521 16.8724L9.75 17.4234L11.7748 15.2974C12.0247 15.035 12.4401 15.0248 12.7026 15.2748Z" fill="#030612"/>
</svg>
