<svg width="31" height="31" viewBox="0 0 31 31" fill="none" xmlns="http://www.w3.org/2000/svg">
<path d="M28.2082 12.9577V16.7702C28.2082 21.8535 25.6665 24.3952 20.5832 24.3952H19.9478C19.5538 24.3952 19.1725 24.5858 18.9311 24.9035L17.0248 27.4452C16.1861 28.5635 14.8136 28.5635 13.9748 27.4452L12.0686 24.9035C11.8653 24.6239 11.395 24.3952 11.0519 24.3952H10.4165C5.33317 24.3952 2.7915 23.1243 2.7915 16.7702V10.416C2.7915 5.33268 5.33317 2.79102 10.4165 2.79102H18.0415" stroke="white" stroke-width="1.90625" stroke-miterlimit="10" stroke-linecap="round" stroke-linejoin="round"/>
<path d="M25.0311 9.14518C26.7857 9.14518 28.2082 7.72275 28.2082 5.9681C28.2082 4.21344 26.7857 2.79102 25.0311 2.79102C23.2764 2.79102 21.854 4.21344 21.854 5.9681C21.854 7.72275 23.2764 9.14518 25.0311 9.14518Z" fill="white" stroke="white" stroke-width="1.90625" stroke-linecap="round" stroke-linejoin="round"/>
<path d="M20.5786 14.2292H20.59" stroke="white" stroke-width="2.54167" stroke-linecap="round" stroke-linejoin="round"/>
<path d="M15.4942 14.2292H15.5056" stroke="white" stroke-width="2.54167" stroke-linecap="round" stroke-linejoin="round"/>
<path d="M10.4097 14.2292H10.4211" stroke="white" stroke-width="2.54167" stroke-linecap="round" stroke-linejoin="round"/>
</svg>
