<svg width="21" height="21" viewBox="0 0 21 21" fill="none" xmlns="http://www.w3.org/2000/svg">
<path d="M9.13073 4.60507L9.68239 5.59356C10.1802 6.48562 9.98038 7.65585 9.19629 8.43995C9.19628 8.43996 9.19628 8.43996 9.19628 8.43996C9.19614 8.4401 8.24531 9.39118 9.96962 11.1155C11.6931 12.839 12.6442 11.8898 12.6451 11.8888C12.6452 11.8888 12.6452 11.8888 12.6452 11.8888C13.4293 11.1047 14.5995 10.9049 15.4915 11.4027L16.48 11.9544C17.8271 12.7061 17.9861 14.5952 16.8021 15.7792C16.0907 16.4906 15.2191 17.0442 14.2557 17.0808C12.6337 17.1422 9.87932 16.7318 7.11633 13.9688C4.35334 11.2058 3.94286 8.45137 4.00435 6.82945C4.04087 5.86599 4.59446 4.99443 5.30591 4.28297C6.48992 3.09897 8.37898 3.25805 9.13073 4.60507Z" fill="white"/>
<path d="M11.8693 1.68379C11.9255 1.33624 12.2541 1.10047 12.6017 1.15674C12.6232 1.16086 12.6924 1.17379 12.7287 1.18187C12.8012 1.19802 12.9024 1.22289 13.0285 1.25963C13.2808 1.33311 13.6332 1.45415 14.0562 1.64807C14.903 2.03631 16.0299 2.71547 17.1994 3.8849C18.3688 5.05433 19.0479 6.18127 19.4362 7.0281C19.6301 7.45108 19.7511 7.80349 19.8246 8.05575C19.8614 8.1819 19.8862 8.28307 19.9024 8.3556C19.9105 8.39187 19.9164 8.42099 19.9205 8.4425L19.9254 8.46902C19.9816 8.81657 19.748 9.15871 19.4005 9.21498C19.0539 9.27109 18.7274 9.03646 18.6698 8.69053C18.668 8.68125 18.6631 8.65629 18.6579 8.63276C18.6474 8.58568 18.6292 8.51103 18.6005 8.4123C18.543 8.21482 18.4431 7.92129 18.2772 7.55946C17.9458 6.8367 17.35 5.83864 16.2978 4.78646C15.2456 3.73427 14.2476 3.13843 13.5248 2.80707C13.163 2.64119 12.8694 2.54129 12.6719 2.48376C12.5732 2.45501 12.4491 2.42652 12.402 2.41604C12.0561 2.35839 11.8132 2.03036 11.8693 1.68379Z" fill="white"/>
<path fill-rule="evenodd" clip-rule="evenodd" d="M12.0616 4.61584C12.1583 4.2773 12.5112 4.08128 12.8497 4.178L12.6746 4.79097C12.8497 4.178 12.8497 4.178 12.8497 4.178L12.8509 4.17835L12.8522 4.17873L12.855 4.17956L12.8616 4.18152L12.8785 4.18676C12.8913 4.19086 12.9073 4.1962 12.9264 4.20297C12.9645 4.21652 13.015 4.23578 13.0769 4.26231C13.2007 4.31538 13.3699 4.39733 13.5777 4.52034C13.9938 4.76657 14.5618 5.17557 15.229 5.8428C15.8962 6.51002 16.3052 7.07798 16.5514 7.49403C16.6744 7.70186 16.7564 7.87106 16.8095 7.9949C16.836 8.05678 16.8553 8.10724 16.8688 8.14541C16.8756 8.16449 16.8809 8.1805 16.885 8.19332L16.8902 8.21013L16.8922 8.21672L16.893 8.21956L16.8934 8.22086C16.8934 8.22086 16.8938 8.22208 16.2808 8.39722L16.8938 8.22208C16.9905 8.56062 16.7945 8.91347 16.4559 9.01019C16.1203 9.10609 15.7705 8.9142 15.6703 8.58095L15.6672 8.57178C15.6627 8.55901 15.6533 8.53387 15.6376 8.49714C15.6061 8.42376 15.5491 8.30371 15.4542 8.14341C15.2647 7.82318 14.9224 7.33932 14.3274 6.74436C13.7325 6.1494 13.2486 5.8071 12.9284 5.61757C12.7681 5.5227 12.648 5.46567 12.5746 5.43422C12.5379 5.41848 12.5128 5.4091 12.5 5.40457L12.4908 5.40143C12.1576 5.30123 11.9657 4.9515 12.0616 4.61584Z" fill="white"/>
</svg>
